<svg viewBox="0 0 296 69" xmlns="http://www.w3.org/2000/svg"><path d="m100.45 45.92h-4.14v10.86c4.48.98 7.27 2.18 8.37 3.59l-.92 7.64h-24.85l-.92-7.64c.8-1.04 2.48-2.05 5.06-3.04v-42.05c-2.52-.92-4.2-1.96-5.06-3.13l.92-7.64h24.39c8.53.12 14.89 1.67 19.09 4.65s6.3 8.27 6.3 15.87c0 13.93-9.42 20.89-28.25 20.89zm.54-31.38h-5.88v21.35h6.57c4.44 0 7.76-.83 9.95-2.48 2.19-1.66 3.28-4.52 3.28-8.6s-1.19-6.81-3.58-8.19-5.83-2.07-10.34-2.07z"/><path d="m133.03 2.67c3.44-.8 6.63-1.2 9.57-1.2s5.43.09 7.45.28v56.04c2.39.92 4.08 1.96 5.06 3.13l-.92 7.09h-21.17l-.92-7.09c.86-1.16 2.55-2.21 5.06-3.13v-44.91c-2.15-.74-3.83-1.78-5.06-3.13l.92-7.09z"/><path d="m192.84 64.14c-4.23 3.07-9.22 4.6-14.95 4.6s-9.74-1.2-12.01-3.59-3.4-6.29-3.4-11.69v-21.26c-2.15-.74-3.83-1.78-5.06-3.13l.92-7.09c3.43-.8 6.63-1.2 9.57-1.2s5.43.09 7.45.28v29.36c0 3.31.51 5.51 1.52 6.58s3.02 1.61 6.03 1.61 5.8-.98 8.37-2.94v-23.47c-2.15-.74-3.83-1.78-5.06-3.13l.92-7.09c3.44-.8 6.63-1.2 9.57-1.2s5.43.09 7.45.28v35.89c2.15.43 3.83.95 5.06 1.56v7.27c-3.68 1.96-8.31 2.94-13.9 2.94-1.53-1.1-2.36-2.64-2.48-4.6z"/><path d="m236.92 2.67c3.5-.8 6.84-1.2 10.03-1.2s5.92.09 8.19.28v55.21c1.84.31 3.53.83 5.06 1.56v7.27c-3.68 1.96-8.34 2.94-13.99 2.94-.61-.31-1.21-.86-1.79-1.66s-.91-1.56-.97-2.3c-1.35 1.1-3.1 2.04-5.24 2.81-2.15.77-4.27 1.15-6.35 1.15-6.63 0-11.43-1.79-14.4-5.38-2.98-3.59-4.46-9.46-4.46-17.62 0-9.26 2.27-15.77 6.81-19.51 3.99-3.31 8.89-4.97 14.72-4.97 2.58 0 5.15.31 7.73.92v-9.11c-2.82-.8-4.91-1.9-6.26-3.31l.92-7.09zm-3.13 56.68c3.5 0 6.32-1.04 8.47-3.13v-24.66c-2.52-.61-5.19-.92-8.01-.92s-4.86 1.24-6.12 3.73c-1.26 2.48-1.89 6.2-1.89 11.14s.61 8.48 1.84 10.63 3.13 3.22 5.71 3.22z"/><path d="m291.67 33.31c-4.66 0-7.88.89-9.66 2.67v21.07c4.97.92 8.37 2.21 10.21 3.87l-.92 7.09h-26.32l-.92-7.09c.86-1.16 2.55-2.21 5.06-3.13v-25.58c-2.15-.74-3.83-1.78-5.06-3.13l.92-7.09c3.37-.74 6.41-1.1 9.11-1.1s4.94.06 6.72.18v5.8c1.41-1.66 3.22-3.02 5.43-4.1 2.21-1.07 4.22-1.61 6.03-1.61s3.05.15 3.73.46l-.28 11.96c-1.23-.18-2.58-.28-4.05-.28z"/><path d="m46.25 7.19c9.01 0 15.56 6.55 15.56 15.56v9.84c0 9.01-6.56 15.57-15.56 15.57h-3.55l-1.65.95-13.15 7.48v-7.99l-6.61-.53c-8.29-.63-14.1-7.02-14.1-15.47v-9.84c0-9.01 6.55-15.56 15.56-15.56h23.5m-0-7.2h-23.5c-12.99 0-22.75 9.76-22.75 22.75v9.84c0 12.3 8.73 21.68 20.69 22.64v13.77l23.92-13.66h1.64c12.99 0 22.75-9.77 22.75-22.76v-9.84c0-12.99-9.76-22.75-22.75-22.75z"/><path d="m31.15 15.74c-4.65 0-8.41 3.77-8.41 8.41s3.77 8.41 8.41 8.41c2.32 0 4.43-.94 5.95-2.46s2.46-3.63 2.46-5.95c0-4.65-3.77-8.41-8.41-8.41zm-11.78 8.41c0-6.51 5.27-11.78 11.78-11.78s11.78 5.27 11.78 11.78c0 2.65-.87 5.09-2.35 7.06l8.58 8.58c.66.66.66 1.72 0 2.38s-1.72.66-2.38 0l-8.58-8.58c-1.97 1.47-4.41 2.35-7.06 2.35-6.51 0-11.78-5.27-11.78-11.78z" fill-rule="evenodd"/></svg>